<?plantuml 1.2026.1?><svg xmlns="http://www.w3.org/2000/svg" xmlns:xlink="http://www.w3.org/1999/xlink" contentStyleType="text/css" data-diagram-type="DESCRIPTION" height="668px" preserveAspectRatio="none" style="width:1119px;height:668px;background:#FAFAFA;" version="1.1" viewBox="0 0 1119 668" width="1119px" zoomAndPan="magnify"><title>3.5 Three-Tier System Architecture</title><defs/><g><rect fill="#FAFAFA" height="668" style="stroke:none;stroke-width:1;" width="1119" x="0" y="0"/><g class="title" data-source-line="3"><text fill="#000000" font-family="Verdana" font-size="22" font-weight="bold" lengthAdjust="spacing" textLength="436.9492" x="336.5254" y="35.4209">3.5 Three-Tier System Architecture</text></g><!--cluster Tier 1 ? Physical Data Collection--><g class="cluster" data-qualified-name="Tier 1 . Physical Data Collection" data-source-line="9" id="ent0002"><path d="M13.5,57.6094 L273.958,57.6094 A3.75,3.75 0 0 1 276.458,60.1094 L283.458,79.9063 L283.5,79.9063 A2.5,2.5 0 0 1 286,82.4063 L286,259.6994 A2.5,2.5 0 0 1 283.5,262.1994 L13.5,262.1994 A2.5,2.5 0 0 1 11,259.6994 L11,60.1094 A2.5,2.5 0 0 1 13.5,57.6094" fill="#A9DFBF" style="stroke:#000000;stroke-width:1;"/><line style="stroke:#000000;stroke-width:1;" x1="11" x2="283.458" y1="79.9063" y2="79.9063"/><text fill="#000000" font-family="Verdana" font-size="14" font-weight="bold" lengthAdjust="spacing" textLength="259.458" x="15" y="72.6045">Tier 1 &#8212; Physical Data Collection</text></g><!--cluster Tier 2 ? Cloud Processing--><g class="cluster" data-qualified-name="Tier 2 . Cloud Processing" data-source-line="15" id="ent0006"><path d="M20.5,311.1994 L226.1953,311.1994 A3.75,3.75 0 0 1 228.6953,313.6994 L235.6953,333.4963 L259.5,333.4963 A2.5,2.5 0 0 1 262,335.9963 L262,658.5894 A2.5,2.5 0 0 1 259.5,661.0894 L20.5,661.0894 A2.5,2.5 0 0 1 18,658.5894 L18,313.6994 A2.5,2.5 0 0 1 20.5,311.1994" fill="#AED6F1" style="stroke:#000000;stroke-width:1;"/><line style="stroke:#000000;stroke-width:1;" x1="18" x2="235.6953" y1="333.4963" y2="333.4963"/><text fill="#000000" font-family="Verdana" font-size="14" font-weight="bold" lengthAdjust="spacing" textLength="204.6953" x="22" y="326.1945">Tier 2 &#8212; Cloud Processing</text></g><!--cluster Tier 3 ? User Presentation--><g class="cluster" data-qualified-name="Tier 3 . User Presentation" data-source-line="23" id="ent0012"><path d="M288.5,455.4994 L501.2568,455.4994 A3.75,3.75 0 0 1 503.7568,457.9994 L510.7568,477.7963 L1109.5,477.7963 A2.5,2.5 0 0 1 1112,480.2963 L1112,550.2894 A2.5,2.5 0 0 1 1109.5,552.7894 L288.5,552.7894 A2.5,2.5 0 0 1 286,550.2894 L286,457.9994 A2.5,2.5 0 0 1 288.5,455.4994" fill="#FAD7A0" style="stroke:#000000;stroke-width:1;"/><line style="stroke:#000000;stroke-width:1;" x1="286" x2="510.7568" y1="477.7963" y2="477.7963"/><text fill="#000000" font-family="Verdana" font-size="14" font-weight="bold" lengthAdjust="spacing" textLength="211.7568" x="290" y="470.4945">Tier 3 &#8212; User Presentation</text></g><!--entity sensors--><g class="entity" data-qualified-name="Tier 1 . Physical Data Collection.sensors" data-source-line="10" id="ent0003"><polygon fill="#FFFFFF" points="32.33,102.6094,42.33,92.6094,263.6611,92.6094,263.6611,128.9063,253.6611,138.9063,32.33,138.9063,32.33,102.6094" style="stroke:#000000;stroke-width:1;"/><line style="stroke:#000000;stroke-width:1;" x1="253.6611" x2="263.6611" y1="102.6094" y2="92.6094"/><line style="stroke:#000000;stroke-width:1;" x1="32.33" x2="253.6611" y1="102.6094" y2="102.6094"/><line style="stroke:#000000;stroke-width:1;" x1="253.6611" x2="253.6611" y1="102.6094" y2="138.9063"/><text fill="#000000" font-family="Verdana" font-size="14" lengthAdjust="spacing" textLength="28.1777" x="47.33" y="125.6045">GPS</text><text fill="#000000" font-family="Verdana" font-size="14" lengthAdjust="spacing" textLength="4.4502" x="75.5077" y="125.6045">&#160;</text><text fill="#000000" font-family="Verdana" font-size="14" lengthAdjust="spacing" textLength="4.7168" x="79.9579" y="125.6045">/</text><text fill="#000000" font-family="Verdana" font-size="14" lengthAdjust="spacing" textLength="4.4502" x="84.6747" y="125.6045">&#160;</text><text fill="#000000" font-family="Verdana" font-size="14" lengthAdjust="spacing" textLength="21.2461" x="89.1249" y="125.6045">IoT</text><text fill="#000000" font-family="Verdana" font-size="14" lengthAdjust="spacing" textLength="4.4502" x="110.371" y="125.6045">&#160;</text><text fill="#000000" font-family="Verdana" font-size="14" lengthAdjust="spacing" textLength="4.7168" x="114.8212" y="125.6045">/</text><text fill="#000000" font-family="Verdana" font-size="14" lengthAdjust="spacing" textLength="4.4502" x="119.538" y="125.6045">&#160;</text><text fill="#000000" font-family="Verdana" font-size="14" lengthAdjust="spacing" textLength="54.9404" x="123.9882" y="125.6045">Camera</text><text fill="#000000" font-family="Verdana" font-size="14" lengthAdjust="spacing" textLength="4.4502" x="178.9286" y="125.6045">&#160;</text><text fill="#000000" font-family="Verdana" font-size="14" lengthAdjust="spacing" textLength="55.2822" x="183.3788" y="125.6045">Sensors</text></g><!--entity edge--><g class="entity" data-qualified-name="Tier 1 . Physical Data Collection.edge" data-source-line="11" id="ent0004"><rect fill="#A9DFBF" height="46.2969" rx="2.5" ry="2.5" style="stroke:#000000;stroke-width:1;" width="141.5273" x="77.24" y="199.8994"/><rect fill="#A9DFBF" height="10" style="stroke:#000000;stroke-width:1;" width="15" x="198.7673" y="204.8994"/><rect fill="#A9DFBF" height="2" style="stroke:#000000;stroke-width:1;" width="4" x="196.7673" y="206.8994"/><rect fill="#A9DFBF" height="2" style="stroke:#000000;stroke-width:1;" width="4" x="196.7673" y="210.8994"/><text fill="#000000" font-family="Verdana" font-size="14" lengthAdjust="spacing" textLength="101.5273" x="92.24" y="232.8945">Edge Gateway</text></g><!--entity api--><g class="entity" data-qualified-name="Tier 2 . Cloud Processing.api" data-source-line="16" id="ent0007"><rect fill="#AED6F1" height="46.2969" rx="2.5" ry="2.5" style="stroke:#000000;stroke-width:1;" width="195.3809" x="50.31" y="346.1994"/><rect fill="#AED6F1" height="10" style="stroke:#000000;stroke-width:1;" width="15" x="225.6909" y="351.1994"/><rect fill="#AED6F1" height="2" style="stroke:#000000;stroke-width:1;" width="4" x="223.6909" y="353.1994"/><rect fill="#AED6F1" height="2" style="stroke:#000000;stroke-width:1;" width="4" x="223.6909" y="357.1994"/><text fill="#000000" font-family="Verdana" font-size="14" lengthAdjust="spacing" textLength="155.3809" x="65.31" y="379.1945">API Gateway (FastAPI)</text></g><!--entity proc--><g class="entity" data-qualified-name="Tier 2 . Cloud Processing.proc" data-source-line="17" id="ent0008"><rect fill="#AED6F1" height="46.2969" rx="2.5" ry="2.5" style="stroke:#000000;stroke-width:1;" width="212.498" x="33.75" y="490.4994"/><rect fill="#AED6F1" height="10" style="stroke:#000000;stroke-width:1;" width="15" x="226.248" y="495.4994"/><rect fill="#AED6F1" height="2" style="stroke:#000000;stroke-width:1;" width="4" x="224.248" y="497.4994"/><rect fill="#AED6F1" height="2" style="stroke:#000000;stroke-width:1;" width="4" x="224.248" y="501.4994"/><text fill="#000000" font-family="Verdana" font-size="14" lengthAdjust="spacing" textLength="172.498" x="48.75" y="523.4945">Processing &amp; Scheduling</text></g><!--entity db--><g class="entity" data-qualified-name="Tier 2 . Cloud Processing.db" data-source-line="18" id="ent0009"><path d="M60.1,609.7894 C60.1,599.7894 139.9975,599.7894 139.9975,599.7894 C139.9975,599.7894 219.8949,599.7894 219.8949,609.7894 L219.8949,635.0863 C219.8949,645.0863 139.9975,645.0863 139.9975,645.0863 C139.9975,645.0863 60.1,645.0863 60.1,635.0863 L60.1,609.7894" fill="#FFFFFF" style="stroke:#000000;stroke-width:1;"/><path d="M60.1,609.7894 C60.1,619.7894 139.9975,619.7894 139.9975,619.7894 C139.9975,619.7894 219.8949,619.7894 219.8949,609.7894" fill="none" style="stroke:#000000;stroke-width:1;"/><text fill="#000000" font-family="Verdana" font-size="14" lengthAdjust="spacing" textLength="139.7949" x="70.1" y="636.7845">PostgreSQL + Redis</text></g><!--entity admin--><g class="entity" data-qualified-name="Tier 3 . User Presentation.admin" data-source-line="24" id="ent0013"><rect fill="#FAD7A0" height="46.2969" rx="2.5" ry="2.5" style="stroke:#000000;stroke-width:1;" width="229.3828" x="302.31" y="490.4994"/><rect fill="#FAD7A0" height="10" style="stroke:#000000;stroke-width:1;" width="15" x="511.6928" y="495.4994"/><rect fill="#FAD7A0" height="2" style="stroke:#000000;stroke-width:1;" width="4" x="509.6928" y="497.4994"/><rect fill="#FAD7A0" height="2" style="stroke:#000000;stroke-width:1;" width="4" x="509.6928" y="501.4994"/><text fill="#000000" font-family="Verdana" font-size="14" lengthAdjust="spacing" textLength="189.3828" x="317.31" y="523.4945">Admin Dashboard (Next.js)</text></g><!--entity app--><g class="entity" data-qualified-name="Tier 3 . User Presentation.app" data-source-line="25" id="ent0014"><rect fill="#FAD7A0" height="46.2969" rx="2.5" ry="2.5" style="stroke:#000000;stroke-width:1;" width="267.623" x="567.19" y="490.4994"/><rect fill="#FAD7A0" height="10" style="stroke:#000000;stroke-width:1;" width="15" x="814.813" y="495.4994"/><rect fill="#FAD7A0" height="2" style="stroke:#000000;stroke-width:1;" width="4" x="812.813" y="497.4994"/><rect fill="#FAD7A0" height="2" style="stroke:#000000;stroke-width:1;" width="4" x="812.813" y="501.4994"/><text fill="#000000" font-family="Verdana" font-size="14" lengthAdjust="spacing" textLength="227.623" x="582.19" y="523.4945">Bus Tracking App (React Native)</text></g><!--entity web--><g class="entity" data-qualified-name="Tier 3 . User Presentation.web" data-source-line="26" id="ent0015"><rect fill="#FAD7A0" height="46.2969" rx="2.5" ry="2.5" style="stroke:#000000;stroke-width:1;" width="226.5117" x="869.74" y="490.4994"/><rect fill="#FAD7A0" height="10" style="stroke:#000000;stroke-width:1;" width="15" x="1076.2517" y="495.4994"/><rect fill="#FAD7A0" height="2" style="stroke:#000000;stroke-width:1;" width="4" x="1074.2517" y="497.4994"/><rect fill="#FAD7A0" height="2" style="stroke:#000000;stroke-width:1;" width="4" x="1074.2517" y="501.4994"/><text fill="#000000" font-family="Verdana" font-size="14" lengthAdjust="spacing" textLength="186.5117" x="884.74" y="523.4945">Public Web Portal (Next.js)</text></g><!--link sensors to edge--><g class="link" data-entity-1="ent0003" data-entity-2="ent0004" data-link-type="dependency" data-source-line="12" id="lnk5"><path d="M148,139.3394 C148,157.1094 148,175.7394 148,193.4994" fill="none" id="sensors-to-edge" style="stroke:#555555;stroke-width:1;"/><polygon fill="#555555" points="148,199.4994,152,190.4994,148,194.4994,144,190.4994,148,199.4994" style="stroke:#555555;stroke-width:1;"/></g><!--link api to proc--><g class="link" data-entity-1="ent0007" data-entity-2="ent0008" data-link-type="dependency" data-source-line="19" id="lnk10"><path d="M146.73,392.8994 C145.23,419.5394 143.0978,457.6089 141.5978,484.2089" fill="none" id="api-to-proc" style="stroke:#555555;stroke-width:1;"/><polygon fill="#555555" points="141.26,490.1994,145.7604,481.4389,141.5415,485.2073,137.7731,480.9884,141.26,490.1994" style="stroke:#555555;stroke-width:1;"/></g><!--link proc to db--><g class="link" data-entity-1="ent0008" data-entity-2="ent0009" data-link-type="dependency" data-source-line="20" id="lnk11"><path d="M140,537.0294 C140,555.3794 140,575.2094 140,593.4494" fill="none" id="proc-to-db" style="stroke:#555555;stroke-width:1;"/><polygon fill="#555555" points="140,599.4494,144,590.4494,140,594.4494,136,590.4494,140,599.4494" style="stroke:#555555;stroke-width:1;"/></g><!--link edge to api--><g class="link" data-entity-1="ent0004" data-entity-2="ent0007" data-link-type="dependency" data-source-line="29" id="lnk16"><path d="M148,246.5994 C148,273.7094 148,312.9194 148,339.9594" fill="none" id="edge-to-api" style="stroke:#555555;stroke-width:1;"/><polygon fill="#555555" points="148,345.9594,152,336.9594,148,340.9594,144,336.9594,148,345.9594" style="stroke:#555555;stroke-width:1;"/><text fill="#000000" font-family="Verdana" font-size="13" lengthAdjust="spacing" textLength="83.4717" x="149" y="291.2663">MQTT / HTTP</text></g><!--link api to admin--><g class="link" data-entity-1="ent0007" data-entity-2="ent0013" data-link-type="dependency" data-source-line="30" id="lnk17"><path d="M190.62,392.8994 C240.99,419.5394 318.9862,460.794 369.2762,487.394" fill="none" id="api-to-admin" style="stroke:#555555;stroke-width:1;"/><polygon fill="#555555" points="374.58,490.1994,368.4946,482.4555,370.1602,487.8616,364.7541,489.5272,374.58,490.1994" style="stroke:#555555;stroke-width:1;"/><text fill="#000000" font-family="Verdana" font-size="13" lengthAdjust="spacing" textLength="67.1899" x="276" y="435.5663">REST / WS</text></g><!--link api to app--><g class="link" data-entity-1="ent0007" data-entity-2="ent0014" data-link-type="dependency" data-source-line="31" id="lnk18"><path d="M245.85,383.1594 C327.93,395.3394 447.67,416.4294 549,447.4994 C585.78,458.7694 620.2692,473.5386 649.9692,487.4886" fill="none" id="api-to-app" style="stroke:#555555;stroke-width:1;"/><polygon fill="#555555" points="655.4,490.0394,648.9544,482.5926,650.8744,487.9137,645.5533,489.8337,655.4,490.0394" style="stroke:#555555;stroke-width:1;"/><text fill="#000000" font-family="Verdana" font-size="13" lengthAdjust="spacing" textLength="67.1899" x="518" y="435.5663">REST / WS</text></g><!--link api to web--><g class="link" data-entity-1="ent0007" data-entity-2="ent0015" data-link-type="dependency" data-source-line="32" id="lnk19"><path d="M246.04,370.3194 C384.03,372.6794 642.14,385.9394 852,447.4994 C885.51,457.3294 915.6148,472.4051 941.1148,487.0251" fill="none" id="api-to-web" style="stroke:#555555;stroke-width:1;"/><polygon fill="#555555" points="946.32,490.0094,940.5018,482.0628,941.9823,487.5225,936.5227,489.003,946.32,490.0094" style="stroke:#555555;stroke-width:1;"/><text fill="#000000" font-family="Verdana" font-size="13" lengthAdjust="spacing" textLength="33.4395" x="816" y="435.5663">REST</text></g><?plantuml-src TLBHQjim57tNLzobC396kdMb6-j3mKtYhh0LDNRfisnTOhMsP2HvMIY3VSI-S5-oAzbcIRhAO8JEFVUSSwLNli86eQs5qenvvMk4q-Cpo2kBECiLMiYspcC3YIqhvR7qdKN6tAFIhR2YWKAKZsjhEYtdfZOMZj8aV3iLd2h46bEZVUQt952OMkxWYRLcCv3FucAixJamYHPEuC-lty2hhLEbg64Xl00YrEH66Js1e-Jp8hrCuOa1BMqa4Qzu1k_WskJqdui6hO0CjJFMJK0uSFq-4ahJj4QZzZ1PIXAz4XutOXlhC1mC_MFnG8IPD1izkuW5xEUXum_HyRmsdGHkJOdEARqEJfUBZ-d9u7H7EE7NeovCK-4y7Ro93aIhHjeXwLzdU0rPMQ7iwYX3j9QmFPwagHN2aKDkd5zRp6w_mbjOeLJzI6GHwuBU62uqYOUnstXAXSy2dyR0Tuwst28DoOlXRj9ayIbv_v_4ib6Qxj9LXH5MmlG6V_ZZ1pUaZkX0FgHUTWvoI_eXUTAsC5sXA3tSaEPt7CVMlaJdNL6h4kwn06wifnUrhxqXOAHIqFW4nknXEkVmxJOFx-fBddEsEw_UzJcibbd0xxDzb2ozX0ND7cD_0G00?></g></svg>